<?xml version="1.0" encoding="UTF-8"?>
<!DOCTYPE svg PUBLIC "-//W3C//DTD SVG 1.1//EN" "http://www.w3.org/Graphics/SVG/1.1/DTD/svg11.dtd">
<!-- Creator: CorelDRAW X8 -->
<svg xmlns="http://www.w3.org/2000/svg" xml:space="preserve" width="2.83595in" height="1.15484in" version="1.1" style="shape-rendering:geometricPrecision; text-rendering:geometricPrecision; image-rendering:optimizeQuality; fill-rule:evenodd; clip-rule:evenodd"
viewBox="0 0 2170 884"
 xmlns:xlink="http://www.w3.org/1999/xlink">
 <defs>
  <style type="text/css">
   <![CDATA[
    .fil0 {fill:white}
    .fil1 {fill:white;fill-rule:nonzero}
   ]]>
  </style>
 </defs>
 <g id="Layer_x0020_1">
  <metadata id="CorelCorpID_0Corel-Layer"/>
  <path class="fil0" d="M0 0l521 0 309 699 0 -699 1340 0 0 725 -2170 0 0 -725zm1870 714c-71,0 -134,-15 -191,-45 -56,-30 -100,-71 -133,-125 -32,-53 -48,-114 -48,-181 0,-68 16,-128 48,-182 33,-53 77,-95 133,-125 57,-30 120,-45 191,-45 62,0 117,11 167,33 50,22 91,53 124,95l-122 110c-44,-53 -97,-79 -159,-79 -37,0 -70,8 -98,24 -29,16 -51,39 -67,68 -16,29 -24,63 -24,101 0,38 8,71 24,101 16,29 38,52 67,68 28,16 61,24 98,24 62,0 115,-27 159,-79l122 110c-33,41 -74,72 -124,94 -50,22 -105,33 -167,33zm-495 -366c39,14 70,35 92,64 22,28 32,63 32,104 0,59 -23,105 -71,138 -48,32 -117,48 -208,48l-366 0 0 -679 347 0c86,0 152,16 198,48 45,32 68,75 68,130 0,32 -8,61 -24,87 -16,25 -39,45 -68,60zm-331 -186l0 131 132 0c64,0 97,-22 97,-66 0,-43 -33,-65 -97,-65l-132 0zm161 401c67,0 101,-23 101,-68 0,-46 -34,-69 -101,-69l-161 0 0 137 161 0zm-651 7l-287 0 -53 132 -196 0 300 -679 189 0 300 679 -199 0 -54 -132zm-56 -141l-87 -218 -87 218 174 0z"/>
  <path class="fil1" d="M656 135c-2,2 -4,3 -7,4 -2,1 -5,1 -8,1 -6,0 -11,-2 -14,-5 -4,-4 -5,-8 -5,-15l0 -40 -12 0 0 -8 12 0 0 -15 9 0 0 15 20 0 0 8 -20 0 0 40c0,4 1,7 3,9 2,2 5,3 8,3 2,0 4,0 6,-1 2,0 3,-1 4,-2l4 6zm44 -63c8,0 15,2 20,7 5,5 7,12 7,21l0 39 -9 0 0 -38c0,-7 -2,-12 -5,-16 -3,-3 -8,-5 -15,-5 -7,0 -13,2 -17,6 -4,5 -6,10 -6,18l0 35 -10 0 0 -94 10 0 0 39c2,-4 5,-7 10,-9 4,-2 9,-3 15,-3zm100 37l-56 0c1,7 3,12 8,16 5,5 11,7 19,7 4,0 8,-1 11,-2 4,-2 7,-4 9,-7l5 6c-3,4 -6,6 -11,8 -4,2 -9,3 -15,3 -7,0 -13,-1 -18,-4 -5,-3 -10,-7 -13,-13 -2,-5 -4,-11 -4,-17 0,-7 1,-13 4,-18 3,-5 7,-9 12,-12 5,-3 11,-4 17,-4 6,0 12,1 17,4 5,3 8,7 11,12 3,5 4,11 4,18l0 3zm-32 -30c-7,0 -12,2 -16,7 -5,4 -7,9 -8,16l48 0c-1,-7 -3,-12 -8,-16 -4,-5 -10,-7 -16,-7z"/>
  <path class="fil1" d="M60 883l-8 -23 -30 0 -8 23 -14 0 30 -81 14 0 30 81 -14 0zm-11 -34l-8 -22c0,-1 -1,-4 -2,-7 -1,-3 -1,-5 -2,-7 -1,5 -2,10 -4,15l-7 21 23 0z"/>
  <path id="1" class="fil1" d="M109 802l24 0c11,0 19,2 24,5 5,3 7,8 7,15 0,5 -1,9 -3,12 -3,3 -6,5 -11,6l0 0c6,2 10,4 13,7 2,3 4,7 4,12 0,8 -3,13 -8,17 -5,5 -12,7 -21,7l-29 0 0 -81zm13 33l13 0c5,0 10,0 12,-2 3,-2 4,-5 4,-9 0,-4 -2,-7 -4,-8 -3,-2 -7,-3 -13,-3l-12 0 0 22zm0 11l0 26 14 0c6,0 10,-2 13,-4 3,-2 4,-5 4,-10 0,-4 -1,-7 -4,-9 -3,-2 -8,-3 -13,-3l-14 0z"/>
  <path id="2" class="fil1" d="M279 842c0,13 -3,24 -10,31 -6,7 -16,11 -28,11 -12,0 -21,-4 -27,-11 -7,-7 -10,-18 -10,-31 0,-13 3,-23 10,-30 6,-8 15,-11 28,-11 12,0 21,4 27,11 7,7 10,17 10,30zm-61 0c0,10 2,18 6,23 4,5 10,7 17,7 8,0 14,-2 18,-7 4,-5 6,-13 6,-23 0,-10 -2,-17 -6,-22 -4,-5 -10,-8 -17,-8 -8,0 -14,3 -18,8 -4,5 -6,12 -6,22z"/>
  <path id="3" class="fil1" d="M365 802l14 0 -28 81 -14 0 -28 -81 13 0 17 50c1,3 2,6 3,9 1,4 2,7 2,9 0,-3 1,-6 2,-10 1,-4 2,-6 2,-8l17 -50z"/>
  <polygon id="4" class="fil1" points="459,883 414,883 414,802 459,802 459,813 427,813 427,835 457,835 457,846 427,846 427,871 459,871 "/>
  <polygon id="5" class="fil1" points="590,883 577,883 577,813 554,813 554,802 614,802 614,813 590,813 "/>
  <polygon id="6" class="fil1" points="714,883 701,883 701,846 664,846 664,883 651,883 651,802 664,802 664,835 701,835 701,802 714,802 "/>
  <polygon id="7" class="fil1" points="805,883 759,883 759,802 805,802 805,813 772,813 772,835 803,835 803,846 772,846 772,871 805,871 "/>
  <path id="8" class="fil1" d="M908 802l24 0c11,0 19,2 24,5 5,3 8,8 8,15 0,5 -2,9 -4,12 -2,3 -6,5 -10,6l0 0c5,2 9,4 12,7 3,3 4,7 4,12 0,8 -2,13 -8,17 -5,5 -12,7 -21,7l-29 0 0 -81zm14 33l12 0c6,0 10,0 12,-2 3,-2 4,-5 4,-9 0,-4 -1,-7 -4,-8 -3,-2 -7,-3 -13,-3l-11 0 0 22zm0 11l0 26 14 0c5,0 9,-2 12,-4 3,-2 4,-5 4,-10 0,-4 -1,-7 -4,-9 -3,-2 -7,-3 -13,-3l-13 0z"/>
  <path id="9" class="fil1" d="M1078 842c0,13 -3,24 -10,31 -6,7 -15,11 -27,11 -12,0 -22,-4 -28,-11 -7,-7 -10,-18 -10,-31 0,-13 3,-23 10,-30 6,-8 16,-11 28,-11 12,0 21,4 28,11 6,7 9,17 9,30zm-61 0c0,10 2,18 6,23 4,5 10,7 18,7 8,0 13,-2 17,-7 4,-5 6,-13 6,-23 0,-10 -2,-17 -6,-22 -4,-5 -9,-8 -17,-8 -8,0 -14,3 -18,8 -4,5 -6,12 -6,22z"/>
  <path id="10" class="fil1" d="M1167 883l-8 -23 -30 0 -8 23 -14 0 30 -81 14 0 30 81 -14 0zm-11 -34l-8 -22c0,-1 -1,-4 -2,-7 -1,-3 -2,-5 -2,-7 -1,5 -2,10 -4,15l-8 21 24 0z"/>
  <path id="11" class="fil1" d="M1229 840l9 0c6,0 11,-2 14,-4 2,-2 4,-5 4,-10 0,-4 -2,-8 -5,-10 -3,-2 -7,-3 -13,-3l-9 0 0 27zm0 10l0 33 -13 0 0 -81 23 0c10,0 18,2 23,6 5,4 7,10 7,18 0,10 -5,17 -15,21l22 36 -15 0 -19 -33 -13 0z"/>
  <path id="12" class="fil1" d="M1378 842c0,13 -4,23 -11,30 -8,7 -18,11 -32,11l-23 0 0 -81 25 0c13,0 23,4 30,11 7,6 11,16 11,29zm-14 0c0,-19 -9,-29 -27,-29l-12 0 0 59 10 0c19,0 29,-10 29,-30z"/>
  <path id="13" class="fil1" d="M1515 812c-7,0 -13,3 -17,8 -5,6 -7,13 -7,22 0,10 2,18 6,23 4,5 10,7 18,7 4,0 7,0 10,-1 3,0 7,-1 10,-2l0 11c-6,2 -13,4 -21,4 -12,0 -21,-4 -27,-11 -7,-7 -10,-17 -10,-31 0,-8 2,-15 5,-22 3,-6 7,-11 13,-14 6,-3 13,-5 20,-5 9,0 16,2 23,5l-4 11c-3,-1 -6,-2 -9,-3 -3,-1 -6,-2 -10,-2z"/>
  <path id="14" class="fil1" d="M1646 842c0,13 -4,24 -10,31 -7,7 -16,11 -28,11 -12,0 -21,-4 -28,-11 -6,-7 -10,-18 -10,-31 0,-13 4,-23 10,-30 7,-8 16,-11 28,-11 12,0 21,4 28,11 7,7 10,17 10,30zm-62 0c0,10 2,18 6,23 4,5 10,7 18,7 8,0 14,-2 18,-7 4,-5 6,-13 6,-23 0,-10 -2,-17 -6,-22 -4,-5 -10,-8 -18,-8 -8,0 -14,3 -18,8 -4,5 -6,12 -6,22z"/>
  <path id="15" class="fil1" d="M1722 883l-23 -68 -1 0c1,10 1,20 1,28l0 40 -12 0 0 -81 19 0 22 64 0 0 23 -64 19 0 0 81 -13 0 0 -40c0,-4 0,-9 1,-16 0,-6 0,-10 0,-11l0 0 -24 67 -12 0z"/>
  <path id="16" class="fil1" d="M1868 827c0,8 -2,14 -8,19 -5,4 -13,7 -23,7l-9 0 0 30 -13 0 0 -81 23 0c10,0 18,2 23,6 5,4 7,11 7,19zm-40 14l7 0c7,0 12,-1 15,-3 3,-2 5,-6 5,-11 0,-5 -1,-8 -4,-10 -3,-3 -8,-4 -13,-4l-10 0 0 28z"/>
  <path id="17" class="fil1" d="M1953 883l-8 -23 -31 0 -8 23 -14 0 31 -81 14 0 30 81 -14 0zm-12 -34l-7 -22c-1,-1 -1,-4 -2,-7 -1,-3 -2,-5 -2,-7 -1,5 -3,10 -5,15l-7 21 23 0z"/>
  <path id="18" class="fil1" d="M2069 883l-16 0 -40 -64 0 0 0 3c0,7 1,13 1,19l0 42 -12 0 0 -81 16 0 39 64 0 0c0,-1 0,-4 0,-9 0,-6 0,-10 0,-13l0 -42 12 0 0 81z"/>
  <polygon id="19" class="fil1" points="2137,839 2156,802 2170,802 2143,851 2143,883 2130,883 2130,852 2103,802 2118,802 "/>
 </g>
</svg>
